<svg width="32" height="32" viewBox="0 0 32 32" fill="none" xmlns="http://www.w3.org/2000/svg">
<circle cx="16" cy="16" r="16" fill="#F0EFEF"/>
<path d="M11.4285 16C11.4285 16.2405 11.5158 16.4466 11.7039 16.6253L16.929 21.8616C17.0768 22.0127 17.2648 22.0952 17.4865 22.0952C17.9297 22.0952 18.2857 21.7379 18.2857 21.2775C18.2857 21.0507 18.1916 20.8514 18.0439 20.6934L13.3359 16L18.0439 11.3066C18.1916 11.1485 18.2857 10.9424 18.2857 10.7225C18.2857 10.2621 17.9297 9.90472 17.4865 9.90472C17.2648 9.90472 17.0768 9.98719 16.929 10.1384L11.7039 15.3678C11.5158 15.5533 11.4285 15.7595 11.4285 16Z" fill="#232323"/>
</svg>
