<svg width="25" height="23" viewBox="0 0 25 23" fill="none" xmlns="http://www.w3.org/2000/svg">
<path d="M0.715454 11.2024C0.715454 11.7298 1.10793 12.1863 1.7359 12.1863C2.04007 12.1863 2.3148 12.0139 2.5601 11.811L12.2935 3.36161C12.5683 3.11817 12.8823 3.11817 13.157 3.36161L22.8806 11.811C23.1161 12.0139 23.3908 12.1863 23.695 12.1863C24.2739 12.1863 24.7155 11.811 24.7155 11.2227C24.7155 10.8778 24.5879 10.6039 24.3328 10.3808L21.5756 7.98696V3.76735C21.5756 3.3109 21.2911 3.02689 20.8496 3.02689H19.4955C19.0638 3.02689 18.7694 3.3109 18.7694 3.76735V5.54243L14.1186 1.50539C13.2649 0.764927 12.1856 0.764927 11.332 1.50539L1.10793 10.3808C0.843009 10.6039 0.715454 10.9082 0.715454 11.2024ZM3.90433 20.3212C3.90433 21.7819 4.78741 22.6643 6.24939 22.6643H19.1913C20.6435 22.6643 21.5364 21.7819 21.5364 20.3212V12.6123L13.3238 5.50185C12.9411 5.15698 12.48 5.16712 12.1071 5.50185L3.90433 12.6123V20.3212ZM15.296 20.7574H10.1447V14.2657C10.1447 13.7889 10.4489 13.4846 10.9101 13.4846H14.5405C15.0016 13.4846 15.296 13.7889 15.296 14.2657V20.7574Z" fill="#1ED760"/>
</svg>
