<svg width="32" height="32" viewBox="0 0 32 32" fill="none" xmlns="http://www.w3.org/2000/svg">
<path d="M3.71533 15.2024C3.71533 15.7298 4.10781 16.1863 4.73577 16.1863C5.03994 16.1863 5.31468 16.0139 5.55998 15.811L15.2934 7.36161C15.5682 7.11817 15.8821 7.11817 16.1569 7.36161L25.8805 15.811C26.116 16.0139 26.3907 16.1863 26.6949 16.1863C27.2738 16.1863 27.7153 15.811 27.7153 15.2227C27.7153 14.8778 27.5878 14.6039 27.3327 14.3808L24.5755 11.987V7.76735C24.5755 7.3109 24.291 7.02689 23.8494 7.02689H22.4954C22.0637 7.02689 21.7693 7.3109 21.7693 7.76735V9.54243L17.1184 5.50539C16.2648 4.76493 15.1855 4.76493 14.3318 5.50539L4.10781 14.3808C3.84289 14.6039 3.71533 14.9082 3.71533 15.2024ZM6.90421 24.3212C6.90421 25.7819 7.78729 26.6643 9.24926 26.6643H22.1912C23.6434 26.6643 24.5363 25.7819 24.5363 24.3212V16.6123L16.3237 9.50185C15.941 9.15698 15.4798 9.16712 15.107 9.50185L6.90421 16.6123V24.3212ZM18.2959 24.7574H13.1446V18.2657C13.1446 17.7889 13.4488 17.4846 13.9099 17.4846H17.5404C18.0015 17.4846 18.2959 17.7889 18.2959 18.2657V24.7574Z" fill="black" fill-opacity="0.5"/>
</svg>
