<svg width="70" height="70" viewBox="0 0 70 70" fill="none" xmlns="http://www.w3.org/2000/svg">
<circle cx="35" cy="35" r="35" fill="#1ED760"/>
<path d="M28.7974 47H31.7302C32.9159 47 33.5274 46.2933 33.5274 44.9231V25.0769C33.5274 23.6779 32.9159 23.0144 31.7302 23H28.7974C27.6117 23 27.0002 23.7067 27.0002 25.0769V44.9231C26.9877 46.2933 27.5992 47 28.7974 47ZM38.2824 47H41.2028C42.3885 47 43 46.2933 43 44.9231V25.0769C43 23.6779 42.3885 23 41.2028 23H38.2824C37.0843 23 36.4853 23.7067 36.4853 25.0769V44.9231C36.4853 46.2933 37.0843 47 38.2824 47Z" fill="white"/>
</svg>
