<svg width="50" height="50" viewBox="0 0 50 50" fill="none" xmlns="http://www.w3.org/2000/svg">
<circle cx="25" cy="25" r="25" fill="#1ED760"/>
<path d="M20.5695 33.5714H22.6644C23.5113 33.5714 23.9481 33.0666 23.9481 32.0879V17.9121C23.9481 16.9128 23.5113 16.4389 22.6644 16.4286H20.5695C19.7226 16.4286 19.2858 16.9334 19.2858 17.9121V32.0879C19.2769 33.0666 19.7137 33.5714 20.5695 33.5714ZM27.3445 33.5714H29.4305C30.2774 33.5714 30.7142 33.0666 30.7142 32.0879V17.9121C30.7142 16.9128 30.2774 16.4286 29.4305 16.4286H27.3445C26.4887 16.4286 26.0608 16.9334 26.0608 17.9121V32.0879C26.0608 33.0666 26.4887 33.5714 27.3445 33.5714Z" fill="white"/>
</svg>
